<?xml version="1.0" encoding="UTF-8" standalone="no"?>
<svg
   xmlns:svg="http://www.w3.org/2000/svg"
   version="1.1"
   viewBox="0 0 512 512">
   <metadata
      id="metadata16">
      <rdf:RDF>
         <cc:Work
            rdf:about="">
            <dc:format>image/svg+xml</dc:format>
            <dc:type
               rdf:resource="http://purl.org/dc/dcmitype/StillImage" />
            <dc:title></dc:title>
         </cc:Work>
      </rdf:RDF>
   </metadata>
   <defs
      id="defs14" />
   <path
      style="fill:#ff0000"
      id="path76"
      d="m 480.22898,156.32938 c -34.49783,0.79322 -135.84799,-8.62681 -171.297,-53.0103 l -57.64284,107.16686 1.55918,0.81132 c 46.10556,23.9499 69.77553,42.38434 68.66937,93.96709 -0.54452,25.39047 -0.0131,72.68184 -0.0131,72.68184 71.64309,-16.49991 176.3831,-120.31789 158.72444,-221.61881 z" />
   <path
      style="fill:#000000"
      id="path78"
      d="M47.6 504.586c7.122-1.387 15.985-2.76 23.48-4.952 2.876-.833 6.037-1.882 7.283-4.046 2.195-2.64 3.263-5.09 3.8-7.365 2.38-9.99.242-22.122 1.34-32.037 1.203-10.985-.337-24.424 3.705-34.757 14.074-35.946 40.205-72.712 60.187-106.603 5.45-7.737 10.393-15.76 15.247-23.75 7.21-11.882 15.144-23.48 21.357-35.654 3.47-6.835 7.708-13.426 11.808-20.078 6.36-10.357 12.17-21.064 17.88-31.75 8.256-15.46 17.01-30.857 25.558-46.12 5.54-9.871 10.204-20.086 15.88-29.844 6.977-11.99 12.712-23.467 18.22-35.87 8.745-19.746 18.442-38.607 25.44-58.097-.1.016-.204.023-.306.02-5.075 4.99-12.55.782-18.79-2.523a87.619 87.619 0 01-4.257-2.413c-1.666-.985-3.23-1.97-4.8-2.946a162.476 162.476 0 00-2.885-1.72 63.871 63.871 0 00-3.052-1.66l-1.09-.541a455.077 455.077 0 01-10.29-5.193 651.159 651.159 0 01-9.895-5.282c-2.11-1.146-4.216-2.3-6.318-3.46-.132-.07-.25-.124-.367-.19-.25-.127-.51-.245-.74-.376a5.057 5.057 0 01-.355-.187 4.007 4.007 0 01-.612-.418 2.297 2.297 0 01-.474-.53c-2.188 1.81-3.36 3.156-4.546 5.31-1.298 2.376-1.16 5.776-.836 9.436.35 3.657.898 7.578.432 10.984-.015.028-.002.067 0 .113.014.038.02.077.02.116-.262 16.927-4.128 33.992-9.415 52.245-2.665 9.13-7.768 19.082-11.23 29.123-3.35 9.682-7.46 18.497-11.278 27.35-12.676 29.447-29.302 59.78-45.233 87.388-10.14 17.574-21.968 34.428-32.224 51.79-9 15.24-18.79 30.213-28.447 44.96-12.806 19.498-27.094 39.99-38.048 61.184-8.71 16.832-13.02 35.328-17.293 53.316-1.537 6.435-3.393 12.742-5.94 18.887-4.38 10.562-10.257 20.423-15.497 30.776-2.435 4.792-1.99 7.64 5.076 10.824.905.41 1.82.804 2.74 1.178.134.062.284.13.44.187.952.39 1.94.78 2.953 1.16 2.134.806 4.367 1.563 6.555 2.158.844.227 1.68.438 2.513.63.412.086.823.174 1.228.246.43.083.878.14 1.322.173 3.177.234 6.805-.62 9.754-1.192z" />
   <path
      style="fill:#ff2a2a;stroke-width:1.65121675"
      id="path80"
      d="M 159.27907,179.33339 114.24925,87.165002 208.07793,69.226108 Z" />
   <ellipse
      ry="16.721519"
      rx="16.837795"
      cy="469.42657"
      cx="53.607533"
      id="path146"
      style="fill:#ffffff;stroke-width:1.5355531" />
</svg>
